<?xml version="1.0" standalone="no"?>
<!DOCTYPE svg PUBLIC "-//W3C//DTD SVG 20010904//EN"
 "http://www.w3.org/TR/2001/REC-SVG-20010904/DTD/svg10.dtd">
<svg version="1.0" xmlns="http://www.w3.org/2000/svg"
 width="1766.000000pt" height="1682.000000pt" viewBox="0 0 1766.000000 1682.000000"
 preserveAspectRatio="xMidYMid meet">

<g transform="translate(0.000000,1682.000000) scale(0.100000,-0.100000)"
fill="#2563EB" stroke="none">
<path d="M12140 12600 l0 -940 929 0 929 0 4 51 c1 28 2 451 0 940 l-2 889
-930 0 -930 0 0 -940z"/>
<path d="M3730 7905 l0 -4695 4670 0 4670 0 0 3755 0 3755 -935 0 -935 0 0
-2815 0 -2815 -2805 0 -2805 0 2 2818 3 2817 2803 3 2802 2 0 935 0 935 -3735
0 -3735 0 0 -4695z"/>
<path d="M7550 7905 l0 -855 850 0 850 0 0 855 0 855 -850 0 -850 0 0 -855z"/>
</g>
</svg>
