<?xml version="1.0" standalone="no"?>
<!DOCTYPE svg PUBLIC "-//W3C//DTD SVG 20010904//EN"
 "http://www.w3.org/TR/2001/REC-SVG-20010904/DTD/svg10.dtd">
<svg version="1.0" xmlns="http://www.w3.org/2000/svg"
 width="48.000000pt" height="48.000000pt" viewBox="0 0 48.000000 48.000000"
 preserveAspectRatio="xMidYMid meet">

<g transform="translate(0.000000,48.000000) scale(0.100000,-0.100000)"
fill="#2563EB" stroke="#2563EB">
<path d="M5 411 c-7 -12 81 -331 96 -345 16 -17 33 13 54 98 11 42 22 76 25
76 3 0 14 -34 25 -76 10 -41 25 -83 32 -92 12 -16 14 -16 26 -1 6 9 30 82 52
163 l39 146 34 0 34 0 -23 -37 c-12 -21 -26 -42 -31 -47 -14 -16 -9 -46 7 -46
9 0 27 -11 40 -25 31 -30 34 -84 7 -108 -26 -24 -47 -21 -76 9 -22 25 -46 26
-46 3 0 -24 59 -69 90 -69 50 0 90 47 90 104 0 38 -6 52 -34 84 l-34 38 35 57
c19 31 32 61 28 67 -3 5 -37 10 -75 10 -82 0 -76 7 -116 -142 -16 -60 -32
-108 -35 -108 -3 0 -20 54 -38 120 -18 66 -37 123 -43 126 -20 12 -30 -13 -20
-49 8 -28 5 -53 -11 -116 -12 -45 -24 -81 -27 -81 -3 0 -18 48 -34 108 -16 59
-33 115 -38 125 -10 19 -24 22 -33 8z"/>
</g>
</svg>
